<?xml version="1.0" standalone="no"?><!DOCTYPE svg PUBLIC "-//W3C//DTD SVG 1.1//EN" "http://www.w3.org/Graphics/SVG/1.1/DTD/svg11.dtd"><svg t="1515469666094" class="icon" style="" viewBox="0 0 1024 1024" version="1.1" xmlns="http://www.w3.org/2000/svg" p-id="1827" xmlns:xlink="http://www.w3.org/1999/xlink" width="200" height="200"><defs><style type="text/css"></style></defs><path d="M512.896416 65.271586c-247.233847 0-447.656553 200.422705-447.656553 447.656553s200.422705 447.656553 447.656553 447.656553 447.656553-200.422705 447.656553-447.656553S760.130264 65.271586 512.896416 65.271586zM784.575002 784.607748c-35.30611 35.30611-76.401064 63.017242-122.145921 82.365916-47.326888 20.017916-97.636714 30.167067-149.532665 30.167067-51.895951 0-102.2068-10.150174-149.532665-30.167067-45.743834-19.34765-86.839811-47.059805-122.145921-82.365916-35.30611-35.30611-63.017242-76.402087-82.365916-122.145921-20.017916-47.326888-30.167067-97.636714-30.167067-149.532665 0-51.895951 10.150174-102.2068 30.167067-149.532665 19.34765-45.743834 47.059805-86.839811 82.365916-122.145921 35.30611-35.30611 76.402087-63.017242 122.145921-82.365916 47.326888-20.017916 97.636714-30.167067 149.532665-30.167067 51.895951 0 102.2068 10.149151 149.532665 30.167067 45.743834 19.348674 86.839811 47.059805 122.145921 82.365916 35.30611 35.30611 63.017242 76.401064 82.365916 122.145921 20.017916 47.326888 30.167067 97.636714 30.167067 149.532665 0 51.895951-10.149151 102.2068-30.167067 149.532665C847.592244 708.205661 819.881113 749.301637 784.575002 784.607748z" p-id="1828" fill="#3F8BE1"></path><path d="M762.333442 325.410348c-13.429871-11.248182-33.438577-9.476839-44.687782 3.954055L445.776739 654.021597 278.398638 496.01698c-12.740162-12.026918-32.816406-11.44875-44.843324 1.291412-12.025894 12.740162-11.44875 32.81743 1.291412 44.844348l176.977737 167.065993c9.534144 8.999978 22.186302 14.024411 35.101449 14.024411 0.966001 0 1.935072-0.027629 2.902096-0.084934 13.905708-0.814552 27.069519-7.479345 36.115546-18.282389l280.344966-334.778716C777.535679 356.665189 775.766382 336.657506 762.333442 325.410348z" p-id="1829" fill="#3F8BE1"></path></svg>